<svg width="36" height="36" viewBox="0 0 36 36">
    <path fill="#194CE6" fill-rule="evenodd" d="M22.706 0c4.591 0 6.256.497 7.935 1.43 1.679.934 2.996 2.303 3.894 4.048.898 1.745 1.376 3.476 1.376 8.25v8.035c0 4.773-.478 6.504-1.376 8.25-.898 1.744-2.215 3.114-3.894 4.047-1.679.933-3.344 1.43-7.935 1.43H1.279C.573 35.49 0 34.895 0 34.16c0-.293.094-.579.266-.811l1.015-1.369c.233-.313.329-.413.45-.508l.04-.03V13.728c0-4.773.477-6.504 1.375-8.249.898-1.745 2.215-3.114 3.894-4.048C8.719.497 10.384 0 14.976 0zm-4.16 10.708c-.362 0-.678.079-.94.225-.262.147-.468.362-.61.634-.14.272-.216.6-.216.977v3.308h-3.292c-.366 0-.686.078-.95.223-.265.145-.473.357-.616.627-.142.269-.219.595-.219.967s.077.698.22.967c.142.269.35.481.615.626.264.145.584.223.95.223l3.292-.001v3.768c0 .376.076.706.217.978.141.272.347.486.609.633.262.146.578.225.94.225s.679-.079.94-.225c.262-.147.468-.361.61-.633.14-.272.216-.602.216-.978v-3.768l3.587.001c.365 0 .686-.078.95-.223.264-.145.473-.357.616-.626.142-.27.218-.595.218-.967s-.076-.698-.218-.967c-.143-.27-.352-.482-.616-.627-.264-.145-.585-.223-.95-.223h-3.587v-3.308c0-.376-.076-.705-.217-.977-.14-.272-.347-.487-.609-.634-.261-.146-.578-.225-.94-.225z"/>
</svg>
